<svg width="275" height="58" viewBox="0 0 275 58" fill="none" xmlns="http://www.w3.org/2000/svg">
<path d="M0 39.9566H12.6294V22.9724V17.0388H12.9015C13.4459 18.3997 15.2968 20.7948 16.2221 21.938L32.7709 39.9566H46.3802V1.30647H33.8053V18.1274V24.1155H33.533C32.7165 22.428 31.5734 21.0127 30.2669 19.3251L14.4258 1.30647H0V39.9566ZM72.716 41.2631C82.8958 41.2631 87.6863 36.9082 89.5372 33.533L90.027 39.9566H100.642V17.6919H74.8392V25.8031H87.5773V25.8575C87.1419 28.7426 83.4946 31.9 76.5266 31.9C69.2321 31.9 65.3672 27.5451 65.3672 21.1215C65.3672 14.208 69.1234 9.79867 76.4178 9.79867C81.6983 9.79867 84.3657 12.1394 85.6176 15.0789L100.751 12.6294C98.4648 4.73598 89.0471 0 76.69 0C60.5222 0 50.6693 9.30867 50.6693 21.2848C50.6693 32.6076 58.7259 41.2631 72.716 41.2631ZM125.981 41.2631C140.516 41.2631 149.225 36.255 149.225 27.2728C149.225 19.8695 144.762 16.6577 133.602 15.5145L123.64 14.5347C119.775 14.0991 118.632 13.5003 118.632 11.9761C118.632 10.2341 121.082 9.30867 125.709 9.30867C132.078 9.30867 138.011 11.2684 141.223 14.0447L148.899 5.87915C143.02 1.79641 134.963 0 126.471 0C112.753 0 104.914 4.73598 104.914 12.5749C104.914 20.0872 109.704 23.6801 119.503 24.8777L131.043 26.2386C134.31 26.6196 135.289 27.164 135.289 28.6338C135.289 30.6479 132.568 31.7367 126.797 31.7367C120.102 31.7367 114.059 28.797 110.303 25.4764L101.321 33.3153C106.003 37.7792 115.692 41.2631 125.981 41.2631Z" fill="white"/>
<path d="M153.714 39.9569H192.797V0.874023H153.714V39.9569Z" fill="#0086E6"/>
<path d="M192.796 0.874023H173.255V20.4155H192.796V0.874023Z" fill="#00B9F2"/>
<path d="M153.715 39.957H173.256V20.4155H153.715V39.957Z" fill="#005FAD"/>
<path d="M227.468 39.9568H233.674L223.113 23.3536C229.917 21.9381 232.313 16.9844 232.313 12.6296C232.313 7.18583 229.429 1.30664 219.14 1.30664H200.25V39.9568H205.585V24.0613H217.288L227.468 39.9568ZM205.585 5.77054H218.378C224.691 5.77054 226.706 8.98217 226.706 12.6296C226.706 16.2768 224.691 19.6518 218.323 19.6518H205.585V5.77054ZM238.799 1.30664V24.6601C238.799 34.2409 245.114 41.0456 256.546 41.0456C267.922 41.0456 274.291 34.2409 274.291 24.6601V1.30664H268.902V24.3878C268.902 31.3014 264.439 36.4183 256.546 36.4183C248.652 36.4183 244.134 31.3014 244.134 24.3878V1.30664H238.799Z" fill="white"/>
<path d="M6.69767 48.7503H8.39127V57.8697H6.69767V48.7503ZM1.98168 57.8697H0.288086V48.7503H1.98168V57.8697ZM6.82795 53.9614H1.83837V52.5153H6.82795V53.9614ZM15.8348 57.9999C15.1225 57.9999 14.4669 57.8827 13.8676 57.6482C13.2683 57.4137 12.7472 57.088 12.3043 56.6711C11.8613 56.2456 11.5182 55.7506 11.2751 55.186C11.0319 54.6128 10.9103 53.9874 10.9103 53.31C10.9103 52.6326 11.0319 52.0116 11.2751 51.447C11.5182 50.8738 11.8613 50.3788 12.3043 49.9619C12.7472 49.5364 13.2683 49.2063 13.8676 48.9718C14.4669 48.7373 15.1182 48.6201 15.8217 48.6201C16.5339 48.6201 17.1852 48.7373 17.7759 48.9718C18.3751 49.2063 18.8962 49.5364 19.3392 49.9619C19.7821 50.3788 20.1251 50.8738 20.3684 51.447C20.6115 52.0116 20.7331 52.6326 20.7331 53.31C20.7331 53.9874 20.6115 54.6128 20.3684 55.186C20.1251 55.7592 19.7821 56.2542 19.3392 56.6711C18.8962 57.088 18.3751 57.4137 17.7759 57.6482C17.1852 57.8827 16.5382 57.9999 15.8348 57.9999ZM15.8217 56.5148C16.2819 56.5148 16.7076 56.4366 17.0984 56.2803C17.4893 56.124 17.828 55.9025 18.1146 55.6159C18.4012 55.3206 18.6227 54.9819 18.779 54.5997C18.944 54.2089 19.0265 53.779 19.0265 53.31C19.0265 52.841 18.944 52.4155 18.779 52.0333C18.6227 51.6425 18.4012 51.3037 18.1146 51.0171C17.828 50.7219 17.4893 50.496 17.0984 50.3397C16.7076 50.1834 16.2819 50.1052 15.8217 50.1052C15.3614 50.1052 14.9359 50.1834 14.545 50.3397C14.1628 50.496 13.8241 50.7219 13.5289 51.0171C13.2423 51.3037 13.0164 51.6425 12.8514 52.0333C12.6951 52.4155 12.6169 52.841 12.6169 53.31C12.6169 53.7704 12.6951 54.1959 12.8514 54.5867C13.0164 54.9775 13.2423 55.3206 13.5289 55.6159C13.8155 55.9025 14.1542 56.124 14.545 56.2803C14.9359 56.4366 15.3614 56.5148 15.8217 56.5148ZM23.2699 57.8697V48.7503H27.3476C28.3724 48.7503 29.1715 48.9544 29.7447 49.3626C30.3179 49.7621 30.6045 50.3397 30.6045 51.0953C30.6045 51.8423 30.3309 52.4197 29.7838 52.828C29.2366 53.2274 28.5157 53.4272 27.6212 53.4272L27.8557 52.9583C28.8718 52.9583 29.6579 53.1623 30.2137 53.5705C30.7695 53.9788 31.0474 54.5693 31.0474 55.3423C31.0474 56.1326 30.7564 56.7537 30.1746 57.2053C29.5927 57.6482 28.7329 57.8697 27.5951 57.8697H23.2699ZM24.9375 56.5669H27.543C28.1336 56.5669 28.5808 56.4583 28.8848 56.2412C29.1889 56.0153 29.3408 55.6724 29.3408 55.212C29.3408 54.7517 29.1889 54.4173 28.8848 54.2089C28.5808 53.9918 28.1336 53.8832 27.543 53.8832H24.9375V56.5669ZM24.9375 52.6456H27.2043C27.7514 52.6456 28.1683 52.537 28.4549 52.3199C28.7415 52.094 28.8848 51.7727 28.8848 51.3559C28.8848 50.9215 28.7415 50.5959 28.4549 50.3788C28.1683 50.1617 27.7514 50.0531 27.2043 50.0531H24.9375V52.6456ZM37.862 57.9999C37.1499 57.9999 36.4941 57.8827 35.8949 57.6482C35.2956 57.4137 34.7745 57.088 34.3315 56.6711C33.8886 56.2456 33.5456 55.7506 33.3024 55.186C33.0592 54.6128 32.9376 53.9874 32.9376 53.31C32.9376 52.6326 33.0592 52.0116 33.3024 51.447C33.5456 50.8738 33.8886 50.3788 34.3315 49.9619C34.7745 49.5364 35.2956 49.2063 35.8949 48.9718C36.4941 48.7373 37.1455 48.6201 37.849 48.6201C38.5613 48.6201 39.2127 48.7373 39.8031 48.9718C40.4024 49.2063 40.9235 49.5364 41.3664 49.9619C41.8094 50.3788 42.1525 50.8738 42.3956 51.447C42.6389 52.0116 42.7604 52.6326 42.7604 53.31C42.7604 53.9874 42.6389 54.6128 42.3956 55.186C42.1525 55.7592 41.8094 56.2542 41.3664 56.6711C40.9235 57.088 40.4024 57.4137 39.8031 57.6482C39.2127 57.8827 38.5655 57.9999 37.862 57.9999ZM37.849 56.5148C38.3094 56.5148 38.7349 56.4366 39.1257 56.2803C39.5165 56.124 39.8552 55.9025 40.1419 55.6159C40.4285 55.3206 40.6499 54.9819 40.8063 54.5997C40.9714 54.2089 41.0538 53.779 41.0538 53.31C41.0538 52.841 40.9714 52.4155 40.8063 52.0333C40.6499 51.6425 40.4285 51.3037 40.1419 51.0171C39.8552 50.7219 39.5165 50.496 39.1257 50.3397C38.7349 50.1834 38.3094 50.1052 37.849 50.1052C37.3888 50.1052 36.9631 50.1834 36.5723 50.3397C36.1903 50.496 35.8515 50.7219 35.5561 51.0171C35.2695 51.3037 35.0438 51.6425 34.8787 52.0333C34.7224 52.4155 34.6442 52.841 34.6442 53.31C34.6442 53.7704 34.7224 54.1959 34.8787 54.5867C35.0438 54.9775 35.2695 55.3206 35.5561 55.6159C35.8427 55.9025 36.1815 56.124 36.5723 56.2803C36.9631 56.4366 37.3888 56.5148 37.849 56.5148ZM49.4792 57.9999C48.7844 57.9999 48.1374 57.8871 47.5381 57.6612C46.9475 57.4267 46.4308 57.101 45.9878 56.6841C45.5535 56.2586 45.2148 55.7592 44.9717 55.186C44.7284 54.6128 44.6069 53.9874 44.6069 53.31C44.6069 52.6326 44.7284 52.0072 44.9717 51.434C45.2148 50.8608 45.5579 50.3658 46.0009 49.9489C46.4438 49.5234 46.9605 49.1977 47.5511 48.9718C48.1416 48.7373 48.7888 48.6201 49.4923 48.6201C50.2391 48.6201 50.9209 48.7503 51.5376 49.0109C52.1541 49.2628 52.6752 49.6406 53.1009 50.1443L52.0066 51.1735C51.6765 50.8173 51.3073 50.5525 50.8992 50.3788C50.491 50.1964 50.0481 50.1052 49.5704 50.1052C49.0926 50.1052 48.6541 50.1834 48.2546 50.3397C47.8638 50.496 47.5207 50.7175 47.2255 51.0041C46.9389 51.2907 46.713 51.6294 46.548 52.0203C46.3917 52.4111 46.3135 52.841 46.3135 53.31C46.3135 53.779 46.3917 54.2089 46.548 54.5997C46.713 54.9906 46.9389 55.3293 47.2255 55.6159C47.5207 55.9025 47.8638 56.124 48.2546 56.2803C48.6541 56.4366 49.0926 56.5148 49.5704 56.5148C50.0481 56.5148 50.491 56.428 50.8992 56.2542C51.3073 56.0718 51.6765 55.7983 52.0066 55.4335L53.1009 56.4757C52.6752 56.9708 52.1541 57.3486 51.5376 57.6091C50.9209 57.8697 50.2348 57.9999 49.4792 57.9999ZM55.3378 57.8697V48.7503H57.0053V55.2251L61.9037 48.7503H63.48V57.8697H61.8125V51.408L56.9141 57.8697H55.3378ZM66.7013 57.8697V48.7503H73.8013V50.1443H68.3688V52.385H71.0655C72.1598 52.385 72.9892 52.6151 73.5538 53.0755C74.127 53.5271 74.4136 54.1872 74.4136 55.0557C74.4136 55.9502 74.0966 56.6451 73.4626 57.1401C72.8373 57.6265 71.9514 57.8697 70.805 57.8697H66.7013ZM68.3688 56.5669H70.7138C71.3651 56.5669 71.8602 56.441 72.1989 56.1891C72.5376 55.9372 72.707 55.5724 72.707 55.0948C72.707 54.1568 72.0426 53.6878 70.7138 53.6878H68.3688V56.5669ZM76.9325 57.8697V48.7503H78.6V55.2251L83.4984 48.7503H85.0748V57.8697H83.4072V51.408L78.5088 57.8697H76.9325ZM88.283 57.8697V48.7503H92.0349C92.8426 48.7503 93.5331 48.8806 94.1063 49.1412C94.6883 49.4017 95.1355 49.7751 95.4482 50.2615C95.7608 50.748 95.9172 51.3254 95.9172 51.9942C95.9172 52.663 95.7608 53.2405 95.4482 53.7269C95.1355 54.2133 94.6883 54.5867 94.1063 54.8473C93.5331 55.1078 92.8426 55.2381 92.0349 55.2381H89.221L89.9766 54.4434V57.8697H88.283ZM89.9766 54.6258L89.221 53.805H91.9568C92.7037 53.805 93.2639 53.6487 93.6373 53.3361C94.0195 53.0148 94.2105 52.5674 94.2105 51.9942C94.2105 51.4124 94.0195 50.965 93.6373 50.6524C93.2639 50.3397 92.7037 50.1834 91.9568 50.1834H89.221L89.9766 49.3496V54.6258ZM102.493 57.9999C101.798 57.9999 101.151 57.8871 100.552 57.6612C99.9613 57.4267 99.4444 57.101 99.0014 56.6841C98.5673 56.2586 98.2286 55.7592 97.9853 55.186C97.7422 54.6128 97.6205 53.9874 97.6205 53.31C97.6205 52.6326 97.7422 52.0072 97.9853 51.434C98.2286 50.8608 98.5715 50.3658 99.0145 49.9489C99.4574 49.5234 99.9743 49.1977 100.565 48.9718C101.155 48.7373 101.802 48.6201 102.506 48.6201C103.253 48.6201 103.935 48.7503 104.551 49.0109C105.168 49.2628 105.689 49.6406 106.115 50.1443L105.02 51.1735C104.69 50.8173 104.321 50.5525 103.913 50.3788C103.505 50.1964 103.062 50.1052 102.584 50.1052C102.106 50.1052 101.668 50.1834 101.268 50.3397C100.877 50.496 100.534 50.7175 100.239 51.0041C99.9525 51.2907 99.7268 51.6294 99.5616 52.0203C99.4053 52.4111 99.3271 52.841 99.3271 53.31C99.3271 53.779 99.4053 54.2089 99.5616 54.5997C99.7268 54.9906 99.9525 55.3293 100.239 55.6159C100.534 55.9025 100.877 56.124 101.268 56.2803C101.668 56.4366 102.106 56.5148 102.584 56.5148C103.062 56.5148 103.505 56.428 103.913 56.2542C104.321 56.0718 104.69 55.7983 105.02 55.4335L106.115 56.4757C105.689 56.9708 105.168 57.3486 104.551 57.6091C103.935 57.8697 103.248 57.9999 102.493 57.9999ZM114.37 57.8697L111.283 53.4272L112.651 52.5804L116.285 57.8697H114.37ZM108.339 57.8697V48.7503H110.006V57.8697H108.339ZM109.498 54.0265V52.5674H112.572V54.0265H109.498ZM112.807 53.5054L111.257 53.297L114.37 48.7503H116.168L112.807 53.5054ZM126.877 57.9999C126.165 57.9999 125.509 57.8827 124.91 57.6482C124.311 57.4137 123.79 57.088 123.347 56.6711C122.904 56.2456 122.561 55.7506 122.318 55.186C122.075 54.6128 121.953 53.9874 121.953 53.31C121.953 52.6326 122.075 52.0116 122.318 51.447C122.561 50.8738 122.904 50.3788 123.347 49.9619C123.79 49.5364 124.311 49.2063 124.91 48.9718C125.509 48.7373 126.161 48.6201 126.864 48.6201C127.577 48.6201 128.228 48.7373 128.818 48.9718C129.418 49.2063 129.939 49.5364 130.382 49.9619C130.825 50.3788 131.168 50.8738 131.411 51.447C131.654 52.0116 131.776 52.6326 131.776 53.31C131.776 53.9874 131.654 54.6128 131.411 55.186C131.168 55.7592 130.825 56.2542 130.382 56.6711C129.939 57.088 129.418 57.4137 128.818 57.6482C128.228 57.8827 127.581 57.9999 126.877 57.9999ZM126.864 56.5148C127.325 56.5148 127.75 56.4366 128.141 56.2803C128.532 56.124 128.871 55.9025 129.157 55.6159C129.444 55.3206 129.665 54.9819 129.822 54.5997C129.987 54.2089 130.069 53.779 130.069 53.31C130.069 52.841 129.987 52.4155 129.822 52.0333C129.665 51.6425 129.444 51.3037 129.157 51.0171C128.871 50.7219 128.532 50.496 128.141 50.3397C127.75 50.1834 127.325 50.1052 126.864 50.1052C126.404 50.1052 125.978 50.1834 125.588 50.3397C125.206 50.496 124.867 50.7219 124.571 51.0171C124.285 51.3037 124.059 51.6425 123.894 52.0333C123.738 52.4155 123.659 52.841 123.659 53.31C123.659 53.7704 123.738 54.1959 123.894 54.5867C124.059 54.9775 124.285 55.3206 124.571 55.6159C124.858 55.9025 125.197 56.124 125.588 56.2803C125.978 56.4366 126.404 56.5148 126.864 56.5148ZM140.709 48.7503H142.403V57.8697H140.709V48.7503ZM135.993 57.8697H134.299V48.7503H135.993V57.8697ZM140.839 53.9614H135.85V52.5153H140.839V53.9614ZM145.354 57.9999C145.206 57.9999 145.058 57.9869 144.911 57.9609C144.763 57.9348 144.603 57.9043 144.429 57.8697L144.546 56.3975C144.668 56.4322 144.798 56.4496 144.937 56.4496C145.302 56.4496 145.593 56.3019 145.81 56.0067C146.027 55.7027 146.183 55.2597 146.279 54.6779C146.374 54.0961 146.439 53.3795 146.474 52.5283L146.604 48.7503H153.314V57.8697H151.646V49.7665L152.037 50.1834H147.699L148.063 49.7535L147.972 52.4632C147.946 53.3665 147.885 54.1612 147.79 54.8473C147.694 55.5333 147.547 56.1109 147.347 56.5799C147.156 57.0403 146.9 57.392 146.578 57.6352C146.257 57.8783 145.849 57.9999 145.354 57.9999ZM155.371 57.8697L159.474 48.7503H161.142L165.258 57.8697H163.487L159.956 49.6492H160.634L157.117 57.8697H155.371ZM157.26 55.7592L157.716 54.4304H162.64L163.096 55.7592H157.26ZM167.322 57.8697V48.7503H168.989V55.2251L173.888 48.7503H175.464V57.8697H173.796V51.408L168.898 57.8697H167.322ZM171.373 48.138C170.592 48.138 170.001 47.9731 169.602 47.643C169.211 47.3129 169.01 46.8483 169.002 46.249H170.188C170.196 46.5703 170.3 46.8178 170.5 46.9916C170.709 47.1654 171 47.2522 171.373 47.2522C171.746 47.2522 172.038 47.1654 172.246 46.9916C172.463 46.8178 172.577 46.5703 172.585 46.249H173.757C173.749 46.8483 173.544 47.3129 173.145 47.643C172.746 47.9731 172.155 48.138 171.373 48.138ZM185.082 48.7503H186.775V57.8697H185.082V48.7503ZM180.366 57.8697H178.672V48.7503H180.366V57.8697ZM185.212 53.9614H180.222V52.5153H185.212V53.9614Z" fill="white"/>
</svg>
